<?xml version="1.0" encoding="UTF-8"?>
<svg version="1.1" xmlns="http://www.w3.org/2000/svg" width="500" height="500">
<path d="M0 0 C1.88316732 0.89613028 3.73183786 1.86651605 5.55078125 2.88671875 C6.62924316 3.48814697 7.70770508 4.0895752 8.81884766 4.70922852 C9.98355098 5.36838287 11.14809776 6.02781392 12.3125 6.6875 C13.52632536 7.36877285 14.74035841 8.04967578 15.95458984 8.73022461 C24.71893122 13.65539775 33.41003127 18.70383939 42.07739258 23.79760742 C49.16812138 27.95758738 56.31650423 32.00261095 63.5 36 C72.65726664 41.09824737 81.73693317 46.31308142 90.77832031 51.61376953 C98.40799459 56.08279115 106.07005566 60.49311694 113.75 64.875 C114.6155098 65.36906342 114.6155098 65.36906342 115.49850464 65.87310791 C121.60666685 69.3595588 127.71809355 72.84024682 133.83203125 76.31655884 C136.39671011 77.77530793 138.96044461 79.23571173 141.52404785 80.6963501 C143.32855919 81.72356369 145.13446668 82.74829069 146.94042969 83.77294922 C148.04032227 84.39959473 149.14021484 85.02624023 150.2734375 85.671875 C151.23685059 86.2194043 152.20026367 86.76693359 153.19287109 87.33105469 C154.11922363 87.88180664 155.04557617 88.43255859 156 89 C157.03121129 89.48046406 158.06242258 89.96092812 159.1248827 90.45595169 C162.28550198 93.2526265 162.44111879 93.61071853 162.77460003 97.56159592 C162.81682876 99.4985437 162.82564661 101.43638167 162.80900574 103.37371826 C162.82330464 104.44138215 162.83760355 105.50904604 162.85233575 106.60906339 C162.8927704 110.19905946 162.89008295 113.78772539 162.88745117 117.37792969 C162.90703428 119.94680689 162.92907094 122.51566639 162.9533844 125.08450317 C163.00709071 131.34585218 163.02728443 137.60687827 163.03408369 143.86843821 C163.03966751 148.95890464 163.05435819 154.04926141 163.07546425 159.13968658 C163.1340642 173.57400994 163.16635227 188.00806741 163.16667839 202.44251022 C163.16671287 203.60985438 163.16671287 203.60985438 163.16674805 204.80078125 C163.16676507 205.57996183 163.1667821 206.35914241 163.16679964 207.16193452 C163.16871554 219.78593468 163.23399532 232.40871571 163.3277994 245.03233656 C163.42336566 257.99608317 163.47032525 270.95923143 163.46717244 283.92333913 C163.46642941 291.20114392 163.48587394 298.47760666 163.55788231 305.75508881 C163.62523875 312.6013156 163.62535906 319.44473622 163.58016014 326.29113388 C163.57415494 328.80341503 163.59036254 331.31586233 163.63042068 333.82783127 C163.90665204 352.32002407 163.90665204 352.32002407 160.74429345 356.76501179 C157.30002967 359.9541852 153.39811399 361.42848135 149 363 C147.01614792 364.08307424 145.04766161 365.19544583 143.10546875 366.3515625 C141.13400323 367.44485826 139.16131145 368.53594524 137.1875 369.625 C128.80073384 374.2867611 120.46424776 379.02056193 112.1875 383.875 C103.57097604 388.92692259 94.92579446 393.92566797 86.25 398.875 C85.66568207 399.20836365 85.08136414 399.54172729 84.4793396 399.88519287 C81.5080802 401.5800349 78.53636728 403.27407984 75.56445312 404.96777344 C72.03639938 406.97873996 68.51009753 408.99276211 64.984375 411.0078125 C64.11885765 411.50248016 64.11885765 411.50248016 63.2358551 412.00714111 C60.91124767 413.33581302 58.58671283 414.66461189 56.26217651 415.9934082 C50.33238812 419.38298981 44.40214468 422.77175047 38.46801758 426.1537323 C36.62375639 427.20496664 34.77986989 428.25685577 32.93603516 429.30883789 C30.55038522 430.66986689 28.16317516 432.02810106 25.77490234 433.38452148 C20.69769377 436.2762031 15.64542099 439.188176 10.67578125 442.26171875 C9.89356201 442.74141113 9.11134277 443.22110352 8.30541992 443.71533203 C6.90957392 444.57775262 5.52203791 445.45386382 4.14575195 446.34716797 C1.31209225 448.09428195 -0.47525889 449.03887305 -3.84082031 448.78955078 C-7.28134967 447.92968433 -9.80540162 446.67787061 -12.8671875 444.89453125 C-13.98762451 444.24790527 -15.10806152 443.6012793 -16.26245117 442.93505859 C-17.4667257 442.22769496 -18.6709063 441.5201714 -19.875 440.8125 C-21.13144011 440.08332424 -22.38836458 439.35498249 -23.64575195 438.62744141 C-27.4373401 436.42991897 -31.2191648 434.21595431 -35 432 C-37.10014867 430.77194429 -39.20040161 429.54406688 -41.30078125 428.31640625 C-44.24403055 426.59600177 -47.18706439 424.87525527 -50.12841797 423.15161133 C-58.24127736 418.4093606 -66.43434604 413.81927648 -74.64526367 409.24951172 C-82.82050338 404.688689 -90.90802456 399.98978374 -98.98046875 395.25 C-106.1052845 391.07755888 -113.28551567 387.01514901 -120.5 383 C-143.87769827 369.98593229 -143.87769827 369.98593229 -154.01052475 363.65967655 C-156.93223241 361.90581668 -156.93223241 361.90581668 -160.11841202 361.02445889 C-164.09803161 359.53665108 -166.19890926 358.23341662 -169 355 C-171.41307938 347.12553524 -170.51049699 338.28295694 -170.36230469 330.15454102 C-170.35891936 327.57226215 -170.36082066 324.98997173 -170.36761475 322.40769958 C-170.37389836 316.85061208 -170.33634876 311.29521902 -170.26876068 305.73855782 C-170.17110797 297.70493237 -170.13997135 289.67212374 -170.12490478 281.63796913 C-170.09866033 268.60266432 -170.01885568 255.56826214 -169.90527344 242.53344727 C-169.79507404 229.87366239 -169.71015894 217.21412294 -169.65917969 204.55395508 C-169.65602701 203.7732013 -169.65287432 202.99244752 -169.64962611 202.18803454 C-169.63396531 198.27110386 -169.6188009 194.35417144 -169.60388327 190.43723786 C-169.47954235 157.95750151 -169.2682394 125.47887165 -169 93 C-165.43790108 90.94423797 -161.87571738 88.88862294 -158.3134594 86.83313656 C-157.10486697 86.13573078 -155.8962966 85.43828676 -154.68774986 84.74080181 C-146.17744496 79.82932015 -137.66062732 74.92987879 -129.125 70.0625 C-127.37179486 69.06165455 -125.61859034 68.060808 -123.86541748 67.05990601 C-122.08778774 66.04513213 -120.31001845 65.03060307 -118.53222656 64.01611328 C-113.2695208 61.01266824 -108.00882814 58.00570035 -102.74798584 54.99899292 C-99.83207328 53.33251718 -96.91603002 51.66627018 -94 50 C-92.83333271 49.33333443 -91.66666604 48.66666776 -90.5 48 C-88.16666667 46.66666667 -85.83333333 45.33333333 -83.5 44 C-82.92252014 43.67001007 -82.34504028 43.34002014 -81.75006104 43.00003052 C-80.58319593 42.33325336 -79.41632581 41.66648497 -78.24945068 40.99972534 C-75.33577909 39.33482094 -72.42219422 37.66976514 -69.50878906 36.00439453 C-64.22326776 32.98326527 -58.93709308 29.96330751 -53.6477356 26.94889832 C-40.48774353 19.44884141 -27.35324411 11.90915204 -14.28417969 4.25146484 C-12.8866748 3.43282959 -12.8866748 3.43282959 -11.4609375 2.59765625 C-10.64415527 2.11820557 -9.82737305 1.63875488 -8.98583984 1.14477539 C-5.3734639 -0.93764787 -4.0828169 -1.11436109 0 0 Z M-10.43359375 48.9375 C-11.54283203 49.576875 -12.65207031 50.21625 -13.79492188 50.875 C-15.00914419 51.58328258 -16.22333604 52.29161738 -17.4375 53 C-18.69947553 53.72984881 -19.961852 54.45900476 -21.22460938 55.1875 C-23.85036247 56.70304034 -26.47435623 58.22156291 -29.09716797 59.7421875 C-35.04877424 63.18947149 -41.02552547 66.59254688 -47 70 C-49.33360493 71.3328582 -51.66680152 72.66643046 -54 74 C-55.16665916 74.66667981 -56.33332582 75.33334648 -57.5 76 C-58.0775 76.33 -58.655 76.66 -59.25 77 C-61.875 78.5 -61.875 78.5 -64.5 80 C-65.07740936 80.32994965 -65.65481873 80.65989929 -66.24972534 80.99984741 C-67.41730253 81.66703147 -68.58488473 82.33420675 -69.75247192 83.00137329 C-72.65524868 84.6600523 -75.55792108 86.31891327 -78.46044922 87.97802734 C-83.87574682 91.07324529 -89.29177203 94.16715729 -94.71075439 97.25592041 C-97.24092248 98.69820701 -99.77062405 100.14131077 -102.30029297 101.58447266 C-104.06302514 102.58965924 -105.82642247 103.59367908 -107.58984375 104.59765625 C-118.38165282 109.99438999 -118.38165282 109.99438999 -128 117 C-128.183852 119.15341651 -128.29709899 121.31288126 -128.38330078 123.47241211 C-128.41075378 124.14899872 -128.43820679 124.82558533 -128.4664917 125.52267456 C-128.70705401 131.79169294 -128.85001359 138.06326652 -128.96293831 144.33576107 C-129.04026724 148.54911538 -129.14965355 152.75606422 -129.33740234 156.96606445 C-130.91968529 174.26667653 -130.91968529 174.26667653 -126.48983765 190.41207886 C-122.65848199 194.08224901 -118.23960815 195.76414576 -113.22277832 197.27206421 C-109.8554974 198.37481219 -107.14845129 200.09438761 -104.12890625 201.94921875 C-101.94065199 203.19627427 -99.75184071 204.44235284 -97.5625 205.6875 C-95.12581937 207.07597719 -92.68976991 208.4655589 -90.25390625 209.85546875 C-89.34168808 210.37589249 -89.34168808 210.37589249 -88.41104126 210.90682983 C-82.26203858 214.41712969 -76.13013621 217.95687224 -70 221.5 C-57.53412439 228.70237962 -45.03638615 235.84829756 -32.53222656 242.98388672 C-27.2695208 245.98733176 -22.00882814 248.99429965 -16.74798584 252.00100708 C-13.83207328 253.66748282 -10.91603002 255.33372982 -8 257 C-6.83333271 257.66666557 -5.66666604 258.33333224 -4.5 259 C-3.9225 259.33 -3.345 259.66 -2.75 260 C2.50000001 263 2.50000001 263 4.24963379 263.99980164 C5.41750864 264.66715142 6.58539603 265.33447927 7.7532959 266.00178528 C10.65158021 267.65782157 13.549604 269.31430966 16.44726562 270.97143555 C21.9163361 274.09854875 27.3873525 277.22205498 32.86547852 280.33328247 C35.45439456 281.80390532 38.04218159 283.27650843 40.62988281 284.74926758 C41.86434524 285.4511062 43.09936077 286.15197297 44.33496094 286.85180664 C46.0476194 287.82192209 47.75822953 288.79565101 49.46875 289.76953125 C50.44263672 290.32229736 51.41652344 290.87506348 52.41992188 291.44458008 C54.73894057 292.84261832 56.87160407 294.32988767 59 296 C45.19265444 304.14688473 31.31176509 312.12363785 17.2644043 319.84790039 C16.2000415 320.43434326 15.13567871 321.02078613 14.0390625 321.625 C13.01844727 322.18316406 11.99783203 322.74132812 10.94628906 323.31640625 C8.07503754 324.9571214 5.3469366 326.74450731 2.5859375 328.5625 C-1.56815977 331.03431843 -1.56815977 331.03431843 -4.94921875 330.765625 C-6.45935547 329.89164062 -6.45935547 329.89164062 -8 329 C-8.76006348 328.57912109 -9.52012695 328.15824219 -10.30322266 327.72460938 C-13.17023774 326.11464985 -15.99073449 324.43795534 -18.8125 322.75 C-27.31635312 317.72263029 -35.86436782 312.79749789 -44.5 308 C-58.42292382 300.24871236 -72.17604019 292.2158842 -85.89453125 284.109375 C-87.36710742 283.23944776 -88.83975991 282.36964969 -90.3125 281.5 C-91.00279297 281.09233398 -91.69308594 280.68466797 -92.40429688 280.26464844 C-96.89320061 277.62372813 -101.43437725 275.10464524 -106.02734375 272.6484375 C-110.86560268 269.9654608 -115.60401023 267.10937118 -120.33984375 264.25 C-121.39558594 263.61964844 -121.39558594 263.61964844 -122.47265625 262.9765625 C-123.10437744 262.59580566 -123.73609863 262.21504883 -124.38696289 261.82275391 C-125.99514579 260.84854264 -125.99514579 260.84854264 -128 261 C-128.20879841 270.02289016 -128.36857376 279.04494562 -128.46630955 288.06972694 C-128.51322647 292.26073318 -128.576821 296.45008361 -128.67895508 300.64013672 C-128.77696013 304.68625432 -128.83059901 308.73078296 -128.85389519 312.77799606 C-128.87048864 314.3195536 -128.90289655 315.86102679 -128.95157051 317.40190506 C-129.49208441 325.84096019 -129.49208441 325.84096019 -126.14537048 333.19696045 C-123.82550568 334.77651919 -121.58224573 335.91164228 -119 337 C-117.97060303 337.60585938 -116.94120605 338.21171875 -115.88061523 338.8359375 C-114.94934814 339.34382813 -114.01808105 339.85171875 -113.05859375 340.375 C-111.99302246 340.96031494 -110.92745117 341.54562988 -109.82958984 342.14868164 C-108.7102002 342.7596167 -107.59081055 343.37055176 -106.4375 344 C-104.02013024 345.32841173 -101.60521879 346.66123035 -99.19140625 347.99609375 C-98.58494263 348.33144638 -97.978479 348.66679901 -97.3536377 349.01231384 C-91.47506333 352.27324865 -85.66923752 355.65418175 -79.875 359.0625 C-71.80337498 363.80792425 -63.68183703 368.44719847 -55.5 373 C-47.05070893 377.70286364 -38.65870017 382.49145235 -30.3125 387.375 C-28.81529419 388.24813843 -28.81529419 388.24813843 -27.2878418 389.13891602 C-23.02737651 391.62677635 -18.77699972 394.12635441 -14.5625 396.69140625 C-13.91627686 397.07828613 -13.27005371 397.46516602 -12.60424805 397.86376953 C-10.96573407 398.84567231 -9.33590504 399.8420305 -7.70703125 400.83984375 C-4.45030815 402.23558222 -3.36163681 401.93764151 0 401 C2.53900128 399.83322107 2.53900128 399.83322107 5.11328125 398.33203125 C6.10118652 397.77588135 7.0890918 397.21973145 8.10693359 396.64672852 C9.16477051 396.04143311 10.22260742 395.4361377 11.3125 394.8125 C12.97659912 393.87071899 12.97659912 393.87071899 14.67431641 392.90991211 C23.10547588 388.12341663 31.47594289 383.23425124 39.83520508 378.32348633 C47.32892083 373.93553805 54.89718422 369.69562797 62.5 365.5 C72.18160063 360.15604397 81.77722152 354.68738578 91.31274414 349.0871582 C99.05959563 344.53758554 106.84957612 340.06816948 114.66748047 335.6418457 C115.89748779 334.94321411 115.89748779 334.94321411 117.15234375 334.23046875 C117.87413818 333.82207764 118.59593262 333.41368652 119.33959961 332.99291992 C120.97429214 332.10702889 120.97429214 332.10702889 122 331 C122.22064898 328.86873284 122.37103664 326.73016962 122.49438477 324.59106445 C122.53308182 323.92090302 122.57177887 323.25074158 122.61164856 322.56027222 C122.95283674 316.3342983 123.16050008 310.1043934 123.32562351 303.87148762 C123.43919018 299.68639543 123.59721655 295.51395829 123.86547852 291.33569336 C125.6593651 273.37093371 125.6593651 273.37093371 119.76507568 257.17132568 C114.10309083 252.44838354 107.7363661 249.63849639 100.86740112 247.08969116 C97.31092967 245.73813435 94.28255932 244.02907042 91.03125 242.0625 C89.18848131 241.03989631 87.34476195 240.01900348 85.5 239 C76.22397153 233.8407125 67.03365571 228.55079214 57.87890625 223.1796875 C51.12178477 219.22105932 44.32658338 215.3374768 37.5 211.5 C29.66364729 207.09489425 21.87863713 202.61157003 14.125 198.0625 C4.93852442 192.67485307 -4.32283635 187.43732766 -13.62866211 182.2590332 C-21.9566787 177.61327377 -30.19592935 172.82646214 -38.41992188 167.99951172 C-47.2014626 162.85540851 -56.07524362 157.8905862 -65 153 C-62.63728605 150.38287714 -60.16564147 148.82678251 -57.08203125 147.13671875 C-56.08623047 146.5862085 -55.09042969 146.03569824 -54.06445312 145.46850586 C-52.99130859 144.88077393 -51.91816406 144.29304199 -50.8125 143.6875 C-48.54715798 142.43413183 -46.28286226 141.17887101 -44.01953125 139.921875 C-43.44042999 139.60041 -42.86132874 139.27894501 -42.26467896 138.94773865 C-35.13211612 134.97742895 -28.09464707 130.84481678 -21.05786133 126.70776367 C-19.23196227 125.6353397 -17.40293046 124.56822569 -15.5703125 123.50732422 C-13.86125611 122.50507174 -12.16802446 121.4753176 -10.4921875 120.41845703 C-9.71101563 119.94134277 -8.92984375 119.46422852 -8.125 118.97265625 C-7.44695312 118.543479 -6.76890625 118.11430176 -6.0703125 117.67211914 C-3.08605645 116.70329168 -1.75866699 117.60440845 1 119 C2.86498071 119.96691315 4.71427202 120.96442013 6.55078125 121.984375 C7.62900146 122.58241943 8.70722168 123.18046387 9.81811523 123.79663086 C10.98305439 124.44749582 12.14784545 125.09862591 13.3125 125.75 C13.90990997 126.08291046 14.50731995 126.41582092 15.12283325 126.75881958 C24.43808766 131.9507993 33.67761458 137.26366049 42.87524414 142.66162109 C50.47076355 147.1180076 58.10072523 151.51173627 65.75 155.875 C66.61877274 156.37069489 66.61877274 156.37069489 67.50509644 156.87640381 C70.45806131 158.56107096 73.41149356 160.24491639 76.36523438 161.92822266 C81.976711 165.12629361 87.5859394 168.32830009 93.19445801 171.53155518 C94.9337054 172.5246465 96.67338712 173.51697703 98.41308594 174.50927734 C99.49364258 175.12625488 100.57419922 175.74323242 101.6875 176.37890625 C102.7290625 176.9733252 103.770625 177.56774414 104.84375 178.18017578 C109.13370237 180.65366781 113.3878486 183.18688189 117.63671875 185.73022461 C119.84649972 187.1577673 119.84649972 187.1577673 122 187 C122.30198313 178.01203822 122.53255876 169.02583504 122.67355824 160.0338974 C122.74125635 155.85768311 122.83294331 151.68495131 122.98071289 147.51074219 C123.12259231 143.47740422 123.19980736 139.44739981 123.23340416 135.41175842 C123.25732155 133.87715631 123.30404105 132.3427258 123.37449074 130.80955505 C123.58724767 125.98491385 123.54561138 121.64126687 122 117 C118.05824828 113.22307246 113.98783235 111.23729945 109 109 C106.98963164 107.87775028 104.9877581 106.7399525 103 105.578125 C101.00139739 104.46623449 99.00136141 103.35691708 97 102.25 C94.79777722 101.02415558 92.59596014 99.79758205 90.39453125 98.5703125 C89.31252441 97.96735352 88.23051758 97.36439453 87.11572266 96.74316406 C82.62434817 94.23035934 78.15320964 91.6830745 73.6875 89.125 C72.85033447 88.64546875 72.01316895 88.1659375 71.15063477 87.671875 C69.38739158 86.66137876 67.62429365 85.65062903 65.86132812 84.63964844 C60.98137387 81.84325144 56.09717886 79.05427626 51.21343994 76.26449585 C48.2489561 74.57105088 45.28460935 72.87736602 42.3203125 71.18359375 C41.72479584 70.84332657 41.12927917 70.50305939 40.51571655 70.15248108 C36.75378085 68.00277199 32.99252472 65.85187845 29.23173523 63.70016479 C26.70055832 62.25201998 24.16915026 60.80427947 21.63772583 59.35656738 C20.43975511 58.67130305 19.24189576 57.98584397 18.04415894 57.3001709 C15.33303591 55.74815433 12.62043912 54.19886368 9.90478516 52.65478516 C8.03519217 51.5897237 6.16989572 50.51706585 4.31005859 49.43505859 C3.51035645 48.97566895 2.7106543 48.5162793 1.88671875 48.04296875 C1.20182373 47.64489014 0.51692871 47.24681152 -0.1887207 46.83666992 C-4.32512576 44.92597305 -6.80757714 46.83224425 -10.43359375 48.9375 Z " fill="#3985F8" transform="translate(253,26)"/>
<path d="M0 0 C0.33 0 0.66 0 1 0 C1.1368112 32.28996521 1.24302457 64.57984812 1.30639198 96.87003534 C1.31389641 100.68028445 1.32166233 104.49053299 1.32958984 108.30078125 C1.33116371 109.05934816 1.33273757 109.81791507 1.33435912 110.59946886 C1.36048263 122.88972264 1.40779857 135.17980841 1.46291678 147.46996245 C1.51898278 160.07638962 1.55234352 172.68272867 1.56453097 185.28927541 C1.57277278 193.0712493 1.59882312 200.85274835 1.6474988 208.63457611 C1.68289894 214.59696386 1.68674205 220.55910655 1.67864609 226.52160263 C1.68030172 228.97103937 1.69230241 231.42049349 1.71523285 233.86982346 C1.74494285 237.20593967 1.73796217 240.53999913 1.7215271 243.87615967 C1.73900415 244.85280917 1.7564812 245.82945867 1.77448785 246.83570361 C1.68867053 253.24883459 1.68867053 253.24883459 -0.38400912 255.50960398 C-2.04509544 256.63274002 -2.04509544 256.63274002 -5 258 C-5.66 257.67 -6.32 257.34 -7 257 C-6.01 256.67 -5.02 256.34 -4 256 C-4 255.01 -4 254.02 -4 253 C-2.68 252.67 -1.36 252.34 0 252 C0 168.84 0 85.68 0 0 Z " fill="#468FFC" transform="translate(414,127)"/>
<path d="M0 0 C0.99 0.33 1.98 0.66 3 1 C3 24.76 3 48.52 3 73 C2.01 73 1.02 73 0 73 C-0.66 71.35 -1.32 69.7 -2 68 C-1.34 68 -0.68 68 0 68 C0 45.56 0 23.12 0 0 Z " fill="#4B84DC" transform="translate(123,142)"/>
<path d="M0 0 C8.36476354 4.05216366 16.43799072 8.45845256 24.4375 13.1875 C25.48615234 13.80302734 26.53480469 14.41855469 27.61523438 15.05273438 C32.0892959 17.68135232 36.55293061 20.32594847 41 23 C38 24 38 24 34.375 22.6875 C31 21 31 21 30 19 C29.38125 18.855625 28.7625 18.71125 28.125 18.5625 C26 18 26 18 24.6875 16.625 C22.1519792 14.18338738 19.2612893 13.29220897 16 12 C16 11.34 16 10.68 16 10 C13.69 9.34 11.38 8.68 9 8 C8.67 8.66 8.34 9.32 8 10 C8 9.34 8 8.68 8 8 C6.68 7.34 5.36 6.68 4 6 C4 5.34 4 4.68 4 4 C2.68 3.34 1.36 2.68 0 2 C0 1.34 0 0.68 0 0 Z " fill="#4881D9" transform="translate(268,35)"/>
<path d="M0 0 C5.26797595 2.00160969 9.95421018 4.73302621 14.8125 7.5625 C15.69615234 8.06974609 16.57980469 8.57699219 17.49023438 9.09960938 C18.32490234 9.58365234 19.15957031 10.06769531 20.01953125 10.56640625 C20.78370361 11.00927979 21.54787598 11.45215332 22.33520508 11.90844727 C22.8845874 12.26865967 23.43396973 12.62887207 24 13 C24 13.33 24 13.66 24 14 C21.69 14.33 19.38 14.66 17 15 C16.67 13.35 16.34 11.7 16 10 C15.01 10 14.02 10 13 10 C13 9.34 13 8.68 13 8 C9.65976579 7.90721572 7.31243305 8.17189174 4 9 C2.68 6.03 1.36 3.06 0 0 Z " fill="#4082E4" transform="translate(224,271)"/>
<path d="M0 0 C0.78375 0.515625 1.5675 1.03125 2.375 1.5625 C3.64327494 2.27540402 4.91424683 2.98352569 6.1875 3.6875 C7.239375 4.30625 8.29125 4.925 9.375 5.5625 C8.385 6.0575 8.385 6.0575 7.375 6.5625 C6.611875 6.2325 5.84875 5.9025 5.0625 5.5625 C1.85550447 4.36919934 0.66482352 4.80367251 -2.625 5.5625 C-4.72792246 5.92398102 -6.83214561 6.27796356 -8.9375 6.625 C-10.00613281 6.80160156 -11.07476562 6.97820312 -12.17578125 7.16015625 C-13.38814453 7.35931641 -13.38814453 7.35931641 -14.625 7.5625 C-10.99389587 3.64229522 -5.55319218 -0.92553203 0 0 Z " fill="#3F83ED" transform="translate(251.625,142.4375)"/>
<path d="M0 0 C2.31 0 4.62 0 7 0 C7.66 1.32 8.32 2.64 9 4 C10.32 4 11.64 4 13 4 C13 4.99 13 5.98 13 7 C18.94 8.485 18.94 8.485 25 10 C25.33 11.65 25.66 13.3 26 15 C22.444218 13.65788025 19.20894833 12.07755303 15.91796875 10.1796875 C14.98662109 9.64472656 14.05527344 9.10976562 13.09570312 8.55859375 C12.13599609 8.00300781 11.17628906 7.44742188 10.1875 6.875 C9.20845703 6.31167969 8.22941406 5.74835938 7.22070312 5.16796875 C4.81210445 3.78155585 2.40528605 2.39214945 0 1 C0 0.67 0 0.34 0 0 Z " fill="#4383E2" transform="translate(215,194)"/>
<path d="M0 0 C2.31 0 4.62 0 7 0 C2.88260786 3.51879289 -1.48751626 6.17115167 -6.1875 8.8125 C-7.27321289 9.44188477 -7.27321289 9.44188477 -8.38085938 10.08398438 C-10.21839852 11.12155299 -12.10628371 12.06890531 -14 13 C-14.66 12.67 -15.32 12.34 -16 12 C-15.01 11.67 -14.02 11.34 -13 11 C-13 10.34 -13 9.68 -13 9 C-12.01 9 -11.02 9 -10 9 C-10 8.34 -10 7.68 -10 7 C-6.66666667 5.66666667 -3.33333333 4.33333333 0 3 C0 2.01 0 1.02 0 0 Z " fill="#467FD5" transform="translate(192,100)"/>
<path d="M0 0 C4.30764815 1.56641751 8.06171464 3.68336156 12 6 C9.47211993 8.79872437 7.79588866 10.45773019 4 11 C4.33 8.69 4.66 6.38 5 4 C4.01 4 3.02 4 2 4 C2 3.34 2 2.68 2 2 C1.34 2 0.68 2 0 2 C0 1.34 0 0.68 0 0 Z " fill="#4485DE" transform="translate(301,315)"/>
<path d="M0 0 C1.32 0 2.64 0 4 0 C4 0.66 4 1.32 4 2 C5.98 1.67 7.96 1.34 10 1 C9.67 1.99 9.34 2.98 9 4 C9.99 4.33 10.98 4.66 12 5 C12 4.34 12 3.68 12 3 C13.32 3.33 14.64 3.66 16 4 C15.01 4.33 14.02 4.66 13 5 C13 5.66 13 6.32 13 7 C13.99 7 14.98 7 16 7 C16.33 7.99 16.66 8.98 17 10 C12.97683781 8.51463956 9.38707358 6.60123107 5.6875 4.4375 C4.61886719 3.81746094 3.55023438 3.19742188 2.44921875 2.55859375 C1.64097656 2.04425781 0.83273437 1.52992188 0 1 C0 0.67 0 0.34 0 0 Z " fill="#4183E2" transform="translate(276,229)"/>
<path d="M0 0 C0.99 0.66 1.98 1.32 3 2 C-5.72969374 7.95206391 -5.72969374 7.95206391 -10.3125 8.125 C-13.37413309 6.84338615 -15.55405883 5.23012283 -18 3 C-16.35 3 -14.7 3 -13 3 C-12.67 3.99 -12.34 4.98 -12 6 C-10.35 6 -8.7 6 -7 6 C-7 5.34 -7 4.68 -7 4 C-5.68 4 -4.36 4 -3 4 C-2.67 3.01 -2.34 2.02 -2 1 C-1.34 0.67 -0.68 0.34 0 0 Z " fill="#4784E0" transform="translate(259,467)"/>
<path d="M0 0 C0.804375 0.37125 1.60875 0.7425 2.4375 1.125 C3.4275 1.125 4.4175 1.125 5.4375 1.125 C6.0975 3.435 6.7575 5.745 7.4375 8.125 C2.46540438 6.36070801 -1.99688061 3.7310834 -6.5625 1.125 C-2.8828125 -0.984375 -2.8828125 -0.984375 0 0 Z " fill="#4283E5" transform="translate(320.5625,250.875)"/>
<path d="M0 0 C0.66 0.33 1.32 0.66 2 1 C0.37660195 2.70884005 -1.29319053 4.37446717 -3 6 C-3.66 6 -4.32 6 -5 6 C-5 6.99 -5 7.98 -5 9 C-5.99 9.33 -6.98 9.66 -8 10 C-10.1875 8.5625 -10.1875 8.5625 -12 7 C-10.04754815 5.80285445 -8.08785003 4.61751926 -6.125 3.4375 C-5.03445313 2.77621094 -3.94390625 2.11492187 -2.8203125 1.43359375 C-1.88960938 0.96050781 -0.95890625 0.48742187 0 0 Z " fill="#4182E5" transform="translate(307,395)"/>
<path d="M0 0 C1.6396875 0.2475 1.6396875 0.2475 3.3125 0.5 C6.87525873 1.06718184 6.87525873 1.06718184 10 1 C11.33981486 1.3062434 12.67511887 1.63451555 14 2 C12.71186658 2.83878455 11.41936744 3.67086783 10.125 4.5 C9.40570313 4.9640625 8.68640625 5.428125 7.9453125 5.90625 C6 7 6 7 4 7 C3.67 6.01 3.34 5.02 3 4 C3.33 3.67 3.66 3.34 4 3 C2.68 2.01 1.36 1.02 0 0 Z " fill="#3D82E9" transform="translate(162,112)"/>
<path d="M0 0 C1.32 2.97 2.64 5.94 4 9 C0.40608886 7.66511872 -2.75490696 6.03977277 -6 4 C-2.25 0 -2.25 0 0 0 Z " fill="#3D83EA" transform="translate(193,175)"/>
<path d="M0 0 C0 2 0 2 -2.4375 4.5 C-3.283125 5.325 -4.12875 6.15 -5 7 C-5.33 7.66 -5.66 8.32 -6 9 C-6.66 9 -7.32 9 -8 9 C-8 8.34 -8 7.68 -8 7 C-9.98 7.33 -11.96 7.66 -14 8 C-11.72402354 5.50447597 -9.39278822 3.93377014 -6.4375 2.3125 C-5.65246094 1.87550781 -4.86742188 1.43851562 -4.05859375 0.98828125 C-2 0 -2 0 0 0 Z " fill="#4385E8" transform="translate(100,111)"/>
<path d="M0 0 C1.32 0 2.64 0 4 0 C4 0.66 4 1.32 4 2 C5.32 1.34 6.64 0.68 8 0 C8 1.32 8 2.64 8 4 C8.99 4 9.98 4 11 4 C11 4.66 11 5.32 11 6 C12.32 6 13.64 6 15 6 C15.66 7.32 16.32 8.64 17 10 C12.97683781 8.51463956 9.38707358 6.60123107 5.6875 4.4375 C4.61886719 3.81746094 3.55023438 3.19742188 2.44921875 2.55859375 C1.64097656 2.04425781 0.83273437 1.52992188 0 1 C0 0.67 0 0.34 0 0 Z " fill="#4483E0" transform="translate(297,241)"/>
<path d="M0 0 C1.89957501 0.90888756 3.79450786 1.82748031 5.6875 2.75 C7.27111328 3.51570313 7.27111328 3.51570313 8.88671875 4.296875 C11.90003083 5.94531172 14.39287648 7.77499662 17 10 C14.23723823 9.47731534 11.6739124 8.89130413 9 8 C9 7.34 9 6.68 9 6 C8.05125 6.04125 7.1025 6.0825 6.125 6.125 C3 6 3 6 1 4 C1.33 3.67 1.66 3.34 2 3 C1.34 2.67 0.68 2.34 0 2 C0 1.34 0 0.68 0 0 Z " fill="#4683E1" transform="translate(345,79)"/>
<path d="M0 0 C5.31027254 1.46032495 9.46330032 3.98320986 14 7 C9.82412255 8.39195915 7.86525224 6.82323219 4 5 C4 5.66 4 6.32 4 7 C2 6 2 6 0 3 C0 2.01 0 1.02 0 0 Z " fill="#4383E3" transform="translate(330,71)"/>
<path d="M0 0 C0 0.66 0 1.32 0 2 C2.16874252 1.49396008 3.99967627 1.00016187 6 0 C5.67 2.31 5.34 4.62 5 7 C0.49197399 5.74194623 -2.4912812 4.09592835 -6 1 C-3 0 -3 0 0 0 Z " fill="#3F83F1" transform="translate(341,262)"/>
<path d="M0 0 C-1.95245185 1.19714555 -3.91214997 2.38248074 -5.875 3.5625 C-6.96554688 4.22378906 -8.05609375 4.88507813 -9.1796875 5.56640625 C-10.57574219 6.27603516 -10.57574219 6.27603516 -12 7 C-12.66 6.67 -13.32 6.34 -14 6 C-13.67 5.01 -13.34 4.02 -13 3 C-12.01 3 -11.02 3 -10 3 C-10 2.34 -10 1.68 -10 1 C-8.71073008 0.63720544 -7.41846728 0.28503302 -6.125 -0.0625 C-5.40570313 -0.25972656 -4.68640625 -0.45695312 -3.9453125 -0.66015625 C-2 -1 -2 -1 0 0 Z " fill="#4281E7" transform="translate(246,74)"/>
<path d="M0 0 C1.32 0.66 2.64 1.32 4 2 C2.3811004 3.03048037 0.75467511 4.04914678 -0.875 5.0625 C-1.77992188 5.63097656 -2.68484375 6.19945312 -3.6171875 6.78515625 C-4.40351563 7.18605469 -5.18984375 7.58695312 -6 8 C-6.66 7.67 -7.32 7.34 -8 7 C-7.67 6.01 -7.34 5.02 -7 4 C-5.67696283 3.6278958 -4.34262065 3.29369827 -3 3 C-2.67 2.34 -2.34 1.68 -2 1 C-1.34 1.33 -0.68 1.66 0 2 C0 1.34 0 0.68 0 0 Z " fill="#3E85E7" transform="translate(278,338)"/>
<path d="M0 0 C0.33 0.99 0.66 1.98 1 3 C0.34 3 -0.32 3 -1 3 C-0.67 4.32 -0.34 5.64 0 7 C-3.59391114 5.66511872 -6.75490696 4.03977277 -10 2 C-6.75271264 0.37635632 -3.60800902 0 0 0 Z " fill="#3F83EA" transform="translate(309,98)"/>
<path d="M0 0 C3.96 1.98 7.92 3.96 12 6 C12 6.66 12 7.32 12 8 C11.01 8 10.02 8 9 8 C8.67 8.66 8.34 9.32 8 10 C8 9.34 8 8.68 8 8 C6.68 7.34 5.36 6.68 4 6 C4 5.34 4 4.68 4 4 C2.68 3.34 1.36 2.68 0 2 C0 1.34 0 0.68 0 0 Z " fill="#4483E5" transform="translate(268,35)"/>
<path d="M0 0 C0.33 0.99 0.66 1.98 1 3 C-1.36551942 5.73902249 -3.54857221 6.93170092 -7 8 C-9.8125 8.125 -9.8125 8.125 -12 8 C-8.2064129 4.78119883 -4.34170523 2.3836813 0 0 Z " fill="#4582E0" transform="translate(374,357)"/>
<path d="M0 0 C3.3 0.33 6.6 0.66 10 1 C10.33 2.32 10.66 3.64 11 5 C11.99 5.33 12.98 5.66 14 6 C14 6.66 14 7.32 14 8 C9.02790438 6.23570801 4.56561939 3.6060834 0 1 C0 0.67 0 0.34 0 0 Z " fill="#4283E3" transform="translate(214,337)"/>
<path d="M0 0 C0.99 0.33 1.98 0.66 3 1 C0.81482901 3.40575607 -1.25919671 4.79535581 -4.1875 6.1875 C-4.90292969 6.53167969 -5.61835938 6.87585938 -6.35546875 7.23046875 C-6.89816406 7.48441406 -7.44085938 7.73835938 -8 8 C-8 6.35 -8 4.7 -8 3 C-5.36 2.34 -2.72 1.68 0 1 C0 0.67 0 0.34 0 0 Z " fill="#4684E7" transform="translate(360,409)"/>
<path d="M0 0 C0 0.99 0 1.98 0 3 C0.66 3 1.32 3 2 3 C2 3.66 2 4.32 2 5 C-2.50802601 3.74194623 -5.4912812 2.09592835 -9 -1 C-5.38055101 -2.34053666 -3.42632833 -1.61798838 0 0 Z " fill="#3E84E5" transform="translate(318,106)"/>
<path d="M0 0 C2.97 0.495 2.97 0.495 6 1 C6 1.66 6 2.32 6 3 C6.721875 3.103125 7.44375 3.20625 8.1875 3.3125 C11.27793421 4.06793947 13.41743841 5.15531315 16 7 C16 7.66 16 8.32 16 9 C10.0942118 7.44584521 5.02261107 4.40465533 0 1 C0 0.67 0 0.34 0 0 Z " fill="#4980DD" transform="translate(172,313)"/>
<path d="M0 0 C-0.165 0.598125 -0.33 1.19625 -0.5 1.8125 C-1.1114124 4.11344336 -1.1114124 4.11344336 -1 7 C-1.99 7 -2.98 7 -4 7 C-4.66 6.34 -5.32 5.68 -6 5 C-6.99 4.67 -7.98 4.34 -9 4 C-2.25 0 -2.25 0 0 0 Z " fill="#3F83EB" transform="translate(223,158)"/>
<path d="M0 0 C-1 3 -1 3 -2.92578125 4.1328125 C-3.71339844 4.46023437 -4.50101563 4.78765625 -5.3125 5.125 C-6.09238281 5.45757812 -6.87226562 5.79015625 -7.67578125 6.1328125 C-9.77353512 6.91550386 -11.81764866 7.51059398 -14 8 C-11.72402354 5.50447597 -9.39278822 3.93377014 -6.4375 2.3125 C-5.65246094 1.87550781 -4.86742188 1.43851562 -4.05859375 0.98828125 C-2 0 -2 0 0 0 Z " fill="#4C84DF" transform="translate(126,96)"/>
<path d="M0 0 C0.33 0.66 0.66 1.32 1 2 C1.99 2 2.98 2 4 2 C4 2.99 4 3.98 4 5 C4.99 5 5.98 5 7 5 C7.33 5.99 7.66 6.98 8 8 C3.69235185 6.43358249 -0.06171464 4.31663844 -4 2 C-2.68 1.34 -1.36 0.68 0 0 Z " fill="#4384DE" transform="translate(275,82)"/>
<path d="M0 0 C0.33 0.99 0.66 1.98 1 3 C-2.82517513 5.39073445 -6.59665524 5.55966552 -11 6 C-3.8 0 -3.8 0 0 0 Z " fill="#4283E4" transform="translate(271,417)"/>
<path d="M0 0 C3.7910119 1.44950455 7.3874638 3.15172566 11 5 C11 5.33 11 5.66 11 6 C8.36 6.33 5.72 6.66 3 7 C3 5.35 3 3.7 3 2 C2.01 2 1.02 2 0 2 C0 1.34 0 0.68 0 0 Z " fill="#4183E1" transform="translate(263,150)"/>
<path d="M0 0 C0.99 0.66 1.98 1.32 3 2 C3.66 1.67 4.32 1.34 5 1 C5.66 1.66 6.32 2.32 7 3 C0.25 7 0.25 7 -2 7 C-2.33 5.68 -2.66 4.36 -3 3 C-2.34 3 -1.68 3 -1 3 C-0.67 2.01 -0.34 1.02 0 0 Z " fill="#4083E7" transform="translate(273,456)"/>
<path d="M0 0 C3.19902639 -0.08886184 5.92677456 0.08941469 9 1 C9 1.99 9 2.98 9 4 C9.66 4 10.32 4 11 4 C11 4.66 11 5.32 11 6 C6.49197399 4.74194623 3.5087188 3.09592835 0 0 Z " fill="#4484E6" transform="translate(137,293)"/>
<path d="M0 0 C1.98270912 0.95098266 3.96108379 1.91100703 5.9375 2.875 C7.03964844 3.40867188 8.14179688 3.94234375 9.27734375 4.4921875 C12 6 12 6 13 8 C9.65626525 7.44271087 6.96687001 6.64826111 4 5 C4 4.34 4 3.68 4 3 C2.68 2.67 1.36 2.34 0 2 C0 1.34 0 0.68 0 0 Z " fill="#4582DB" transform="translate(344,196)"/>
<path d="M0 0 C6.52307692 -0.36923077 6.52307692 -0.36923077 8.9375 1.5 C9.288125 1.995 9.63875 2.49 10 3 C9.67 3.33 9.34 3.66 9 4 C9.99 4.99 10.98 5.98 12 7 C7.69235185 5.43358249 3.93828536 3.31663844 0 1 C0 0.67 0 0.34 0 0 Z " fill="#4282E2" transform="translate(350,128)"/>
<path d="M0 0 C1.98270912 0.95098266 3.96108379 1.91100703 5.9375 2.875 C7.03964844 3.40867187 8.14179688 3.94234375 9.27734375 4.4921875 C12 6 12 6 13 8 C11.3501725 7.57781184 9.70516335 7.13675575 8.0625 6.6875 C7.14597656 6.44386719 6.22945312 6.20023437 5.28515625 5.94921875 C4.15400391 5.47935547 4.15400391 5.47935547 3 5 C2.67 4.01 2.34 3.02 2 2 C1.34 2 0.68 2 0 2 C0 1.34 0 0.68 0 0 Z " fill="#477ED8" transform="translate(170,383)"/>
<path d="M0 0 C3.6875 -0.3125 3.6875 -0.3125 7 0 C4.63404067 2.61500768 2.13950774 4.38999603 -1 6 C-1.66 5.67 -2.32 5.34 -3 5 C-1.9375 2.5 -1.9375 2.5 0 0 Z " fill="#4584E2" transform="translate(261,347)"/>
<path d="M0 0 C0.99 0.33 1.98 0.66 3 1 C2.34 2.98 1.68 4.96 1 7 C-1.91517292 5.92598892 -3.77810176 5.22189824 -6 3 C-4.02 2.67 -2.04 2.34 0 2 C0 1.34 0 0.68 0 0 Z " fill="#3E81EB" transform="translate(266,217)"/>
<path d="M0 0 C1.65161581 0.75836443 3.29617138 1.53212076 4.9375 2.3125 C5.85402344 2.74175781 6.77054687 3.17101562 7.71484375 3.61328125 C10 5 10 5 11 8 C10.01 8 9.02 8 8 8 C7.67 7.34 7.34 6.68 7 6 C6.071875 5.7834375 6.071875 5.7834375 5.125 5.5625 C2.60341474 4.89502155 1.6144908 4.0181135 0 2 C0 1.34 0 0.68 0 0 Z " fill="#4D81DF" transform="translate(404,113)"/>
<path d="M0 0 C4.8274799 1.41292095 8.7162359 3.42974154 13 6 C10.39417629 6.93065133 9.35801776 7.14917407 6.75 6.0625 C5.88375 5.5365625 5.88375 5.5365625 5 5 C5 4.34 5 3.68 5 3 C3.35 3 1.7 3 0 3 C0 2.01 0 1.02 0 0 Z " fill="#4982DC" transform="translate(391,106)"/>
<path d="M0 0 C2.97 0.495 2.97 0.495 6 1 C6 1.66 6 2.32 6 3 C7.65 3 9.3 3 11 3 C11.33 4.32 11.66 5.64 12 7 C7.69235185 5.43358249 3.93828536 3.31663844 0 1 C0 0.67 0 0.34 0 0 Z " fill="#4781E6" transform="translate(362,135)"/>
<path d="M0 0 C1.98270912 0.95098266 3.96108379 1.91100703 5.9375 2.875 C7.03964844 3.40867187 8.14179688 3.94234375 9.27734375 4.4921875 C12 6 12 6 13 8 C11.5410574 7.52269162 10.08286504 7.04308958 8.625 6.5625 C7.81289062 6.29566406 7.00078125 6.02882813 6.1640625 5.75390625 C4 5 4 5 2 4 C2 3.34 2 2.68 2 2 C1.34 2 0.68 2 0 2 C0 1.34 0 0.68 0 0 Z " fill="#467ED8" transform="translate(184,391)"/>
<path d="M0 0 C5.5 -0.36666667 5.5 -0.36666667 7.875 1.375 C9 3 9 3 9 5 C5.22454612 3.90931332 2.52956528 3.0916909 0 0 Z " fill="#417FE7" transform="translate(84,380)"/>
<path d="M0 0 C3.63 1.98 7.26 3.96 11 6 C9 7 9 7 5.5 6.375 C4.345 5.92125 3.19 5.4675 2 5 C1.34 3.35 0.68 1.7 0 0 Z " fill="#4480DC" transform="translate(272,298)"/>
<path d="M0 0 C3.40053502 1.58691634 6.5779386 3.40981682 9.8125 5.3125 C8.8225 5.8075 8.8225 5.8075 7.8125 6.3125 C6.0078125 5.60546875 6.0078125 5.60546875 3.9375 4.5 C3.25945312 4.14292969 2.58140625 3.78585938 1.8828125 3.41796875 C1.19960937 3.05316406 0.51640625 2.68835938 -0.1875 2.3125 C-1.51898535 1.64215011 -2.85177937 0.97437054 -4.1875 0.3125 C-2.1875 -0.6875 -2.1875 -0.6875 0 0 Z " fill="#4680D7" transform="translate(251.1875,142.6875)"/>
<path d="M0 0 C2.31 0 4.62 0 7 0 C3.39042389 3.2910841 0.87362847 4.54663921 -4 5 C-2.68 4.34 -1.36 3.68 0 3 C0 2.01 0 1.02 0 0 Z " fill="#4082E4" transform="translate(192,100)"/>
<path d="M0 0 C0.66 0.33 1.32 0.66 2 1 C2 1.99 2 2.98 2 4 C-2.455 4.495 -2.455 4.495 -7 5 C-2.25 1.125 -2.25 1.125 0 0 Z " fill="#4485E6" transform="translate(166,72)"/>
<path d="M0 0 C0.66 0.33 1.32 0.66 2 1 C0.9375 2.9375 0.9375 2.9375 -1 5 C-4.6875 5.75 -4.6875 5.75 -8 6 C-5.63404067 3.38499232 -3.13950774 1.61000397 0 0 Z " fill="#4582E1" transform="translate(293,403)"/>
<path d="M0 0 C2.02045442 0.60183749 4.02111039 1.27306096 6 2 C6.33 2.66 6.66 3.32 7 4 C6.071875 3.979375 5.14375 3.95875 4.1875 3.9375 C0.97713989 3.84230396 0.97713989 3.84230396 -2 5 C-1.125 1.125 -1.125 1.125 0 0 Z " fill="#4182E4" transform="translate(204,403)"/>
<path d="M0 0 C0.66 0.33 1.32 0.66 2 1 C1.34 2.32 0.68 3.64 0 5 C-2.31 5 -4.62 5 -7 5 C-2.25 1.125 -2.25 1.125 0 0 Z " fill="#4381E5" transform="translate(327,384)"/>
<path d="M0 0 C0.99 0.66 1.98 1.32 3 2 C3 3.32 3 4.64 3 6 C-0.26954202 5.43628586 -1.82575883 4.50037734 -4 2 C-2.68 2 -1.36 2 0 2 C0 1.34 0 0.68 0 0 Z " fill="#3D7FE9" transform="translate(152,297)"/>
<path d="M0 0 C2.31 0 4.62 0 7 0 C7 0.66 7 1.32 7 2 C8.45833358 3.62514468 8.45833358 3.62514468 10 5 C5.75354935 5 3.61475228 3.18249194 0 1 C0 0.67 0 0.34 0 0 Z " fill="#4084E3" transform="translate(329,116)"/>
<path d="M0 0 C0.33 1.32 0.66 2.64 1 4 C-0.98 5.32 -2.96 6.64 -5 8 C-5.66 7.67 -6.32 7.34 -7 7 C-6.01 6.67 -5.02 6.34 -4 6 C-4 5.01 -4 4.02 -4 3 C-2.68 2.67 -1.36 2.34 0 2 C0 1.34 0 0.68 0 0 Z " fill="#4C85DA" transform="translate(414,377)"/>
<path d="M0 0 C2.02045442 0.60183749 4.02111039 1.27306096 6 2 C6.33 2.66 6.66 3.32 7 4 C5 4.66666667 3 5.33333333 1 6 C0.67 4.02 0.34 2.04 0 0 Z " fill="#4181E4" transform="translate(159,234)"/>
<path d="M0 0 C2.02045442 0.60183749 4.02111039 1.27306096 6 2 C6.33 2.66 6.66 3.32 7 4 C4.69 4.33 2.38 4.66 0 5 C0 3.35 0 1.7 0 0 Z " fill="#4380E5" transform="translate(225,415)"/>
<path d="M0 0 C2.31 0.33 4.62 0.66 7 1 C7.33 1.99 7.66 2.98 8 4 C8.99 4.33 9.98 4.66 11 5 C10.01 5.495 10.01 5.495 9 6 C6.8359375 5.00390625 6.8359375 5.00390625 4.375 3.5625 C3.55773437 3.08941406 2.74046875 2.61632812 1.8984375 2.12890625 C1.27195313 1.75636719 0.64546875 1.38382812 0 1 C0 0.67 0 0.34 0 0 Z " fill="#4683DD" transform="translate(156,304)"/>
<path d="M0 0 C0 0.66 0 1.32 0 2 C-0.66 2 -1.32 2 -2 2 C-2.33 3.32 -2.66 4.64 -3 6 C-4.32 5.01 -5.64 4.02 -7 3 C-2.25 0 -2.25 0 0 0 Z " fill="#3F84E2" transform="translate(285,409)"/>
<path d="M0 0 C0.66 0.33 1.32 0.66 2 1 C-1.32307692 4.93846154 -1.32307692 4.93846154 -4.75 5.25 C-5.4925 5.1675 -6.235 5.085 -7 5 C-2.25 1.125 -2.25 1.125 0 0 Z " fill="#4781DB" transform="translate(355,368)"/>
<path d="M0 0 C0.99 0.33 1.98 0.66 3 1 C3 1.66 3 2.32 3 3 C4.32 3.33 5.64 3.66 7 4 C7 4.66 7 5.32 7 6 C3.54074837 4.7508258 0.85306797 3.32472205 -2 1 C-1.34 0.67 -0.68 0.34 0 0 Z " fill="#4482DC" transform="translate(207,331)"/>
<path d="M0 0 C3.77545388 1.09068668 6.47043472 1.9083091 9 5 C6.125 5.125 6.125 5.125 3 5 C1 3 1 3 0 0 Z " fill="#4481DD" transform="translate(364,208)"/>
<path d="M0 0 C2.31 0.33 4.62 0.66 7 1 C2.25 5 2.25 5 0 5 C0 3.35 0 1.7 0 0 Z " fill="#4281E4" transform="translate(138,130)"/>
<path d="M0 0 C0.66 0.33 1.32 0.66 2 1 C1.01 2.485 1.01 2.485 0 4 C-0.66 4 -1.32 4 -2 4 C-2 4.66 -2 5.32 -2 6 C-3.32 5.67 -4.64 5.34 -6 5 C-4.06745228 2.9754262 -2.36841312 1.57894208 0 0 Z " fill="#4782E4" transform="translate(223,39)"/>
<path d="M0 0 C0 0.66 0 1.32 0 2 C-0.66 2 -1.32 2 -2 2 C-1.67 3.32 -1.34 4.64 -1 6 C-3.475 5.01 -3.475 5.01 -6 4 C-2.25 0 -2.25 0 0 0 Z " fill="#4D80D4" transform="translate(193,175)"/>
<path d="M0 0 C0.33 1.98 0.66 3.96 1 6 C-0.98 5.34 -2.96 4.68 -5 4 C-5 3.34 -5 2.68 -5 2 C-2 0 -2 0 0 0 Z " fill="#4385ED" transform="translate(150,82)"/>
<path d="M0 0 C2.31 0 4.62 0 7 0 C7 1.32 7 2.64 7 4 C4.97954558 3.39816251 2.97888961 2.72693904 1 2 C0.67 1.34 0.34 0.68 0 0 Z " fill="#4484E6" transform="translate(175,432)"/>
<path d="M0 0 C0.33 1.65 0.66 3.3 1 5 C-1.91517292 3.92598892 -3.77810176 3.22189824 -6 1 C-3 0 -3 0 0 0 Z " fill="#4582E0" transform="translate(341,262)"/>
<path d="M0 0 C3.77545388 1.09068668 6.47043472 1.9083091 9 5 C7.35 5 5.7 5 4 5 C3.67 4.34 3.34 3.68 3 3 C2.01 2.67 1.02 2.34 0 2 C0 1.34 0 0.68 0 0 Z " fill="#457FDB" transform="translate(199,257)"/>
<path d="M0 0 C-0.33 0.66 -0.66 1.32 -1 2 C-0.34 2 0.32 2 1 2 C1 2.66 1 3.32 1 4 C-1.02045442 3.39816251 -3.02111039 2.72693904 -5 2 C-5.33 1.34 -5.66 0.68 -6 0 C-2.25 -1.125 -2.25 -1.125 0 0 Z " fill="#4382E6" transform="translate(349,124)"/>
<path d="M0 0 C0.66 0.33 1.32 0.66 2 1 C2 1.66 2 2.32 2 3 C3.65 3 5.3 3 7 3 C5.625 4.5 5.625 4.5 4 6 C3.34 6 2.68 6 2 6 C2 5.34 2 4.68 2 4 C1.01 3.67 0.02 3.34 -1 3 C-0.67 2.01 -0.34 1.02 0 0 Z " fill="#3D81E6" transform="translate(220,81)"/>
<path d="" fill="#FFFFFF" transform="translate(0,0)"/>
<path d="" fill="#FFFFFF" transform="translate(0,0)"/>
<path d="" fill="#FFFFFF" transform="translate(0,0)"/>
<path d="" fill="#FFFFFF" transform="translate(0,0)"/>
<path d="" fill="#FFFFFF" transform="translate(0,0)"/>
<path d="" fill="#FFFFFF" transform="translate(0,0)"/>
<path d="" fill="#FFFFFF" transform="translate(0,0)"/>
<path d="" fill="#FFFFFF" transform="translate(0,0)"/>
<path d="" fill="#FFFFFF" transform="translate(0,0)"/>
<path d="" fill="#FFFFFF" transform="translate(0,0)"/>
<path d="" fill="#FFFFFF" transform="translate(0,0)"/>
<path d="" fill="#FFFFFF" transform="translate(0,0)"/>
<path d="" fill="#FFFFFF" transform="translate(0,0)"/>
<path d="" fill="#FFFFFF" transform="translate(0,0)"/>
<path d="" fill="#FFFFFF" transform="translate(0,0)"/>
<path d="" fill="#FFFFFF" transform="translate(0,0)"/>
<path d="" fill="#FFFFFF" transform="translate(0,0)"/>
<path d="" fill="#FFFFFF" transform="translate(0,0)"/>
<path d="" fill="#FFFFFF" transform="translate(0,0)"/>
<path d="" fill="#FFFFFF" transform="translate(0,0)"/>
<path d="" fill="#FFFFFF" transform="translate(0,0)"/>
<path d="" fill="#FFFFFF" transform="translate(0,0)"/>
<path d="" fill="#FFFFFF" transform="translate(0,0)"/>
<path d="" fill="#FFFFFF" transform="translate(0,0)"/>
<path d="" fill="#FFFFFF" transform="translate(0,0)"/>
<path d="" fill="#FFFFFF" transform="translate(0,0)"/>
<path d="" fill="#FFFFFF" transform="translate(0,0)"/>
<path d="" fill="#FFFFFF" transform="translate(0,0)"/>
<path d="" fill="#FFFFFF" transform="translate(0,0)"/>
<path d="" fill="#FFFFFF" transform="translate(0,0)"/>
<path d="" fill="#FFFFFF" transform="translate(0,0)"/>
<path d="" fill="#FFFFFF" transform="translate(0,0)"/>
<path d="" fill="#FFFFFF" transform="translate(0,0)"/>
<path d="" fill="#FFFFFF" transform="translate(0,0)"/>
<path d="" fill="#FFFFFF" transform="translate(0,0)"/>
<path d="" fill="#FFFFFF" transform="translate(0,0)"/>
<path d="" fill="#FFFFFF" transform="translate(0,0)"/>
<path d="" fill="#FFFFFF" transform="translate(0,0)"/>
<path d="" fill="#FFFFFF" transform="translate(0,0)"/>
<path d="" fill="#FFFFFF" transform="translate(0,0)"/>
<path d="" fill="#FFFFFF" transform="translate(0,0)"/>
<path d="" fill="#FFFFFF" transform="translate(0,0)"/>
<path d="" fill="#FFFFFF" transform="translate(0,0)"/>
<path d="" fill="#FFFFFF" transform="translate(0,0)"/>
<path d="" fill="#FFFFFF" transform="translate(0,0)"/>
<path d="" fill="#FFFFFF" transform="translate(0,0)"/>
<path d="" fill="#FFFFFF" transform="translate(0,0)"/>
<path d="" fill="#FFFFFF" transform="translate(0,0)"/>
</svg>
